<svg width="268" height="561" viewBox="0 0 268 561" fill="none" xmlns="http://www.w3.org/2000/svg">
<g clip-path="url(#clip0_224_1104)">
<path fill-rule="evenodd" clip-rule="evenodd" d="M47.1379 8.86969C25.1418 8.86969 7.31043 26.7136 7.31043 48.7251V512.498C7.31043 534.509 25.1418 552.353 47.1379 552.353H220.93C242.926 552.353 260.758 534.509 260.758 512.498V48.7251C260.758 26.7136 242.926 8.86969 220.93 8.86969H47.1379Z" fill="black"/>
<path d="M7.31043 8.86969H260.758V552.353H7.31043V8.86969Z" fill="#DBEAFE"/>
<path d="M30.4828 386.41C30.4828 378.405 36.9669 371.917 44.9655 371.917H223.103C231.101 371.917 237.585 378.405 237.585 386.41V499.454C237.585 507.458 231.101 513.947 223.103 513.947H44.9655C36.9669 513.947 30.4828 507.458 30.4828 499.454V386.41Z" fill="white"/>
<path d="M30.4828 386.41C30.4828 378.405 36.9669 371.917 44.9655 371.917H223.103C231.101 371.917 237.585 378.405 237.585 386.41V499.454C237.585 507.458 231.101 513.947 223.103 513.947H44.9655C36.9669 513.947 30.4828 507.458 30.4828 499.454V386.41Z" fill="white"/>
<path d="M186.172 419.381C186.172 427.185 179.85 433.511 172.051 433.511C164.253 433.511 157.931 427.185 157.931 419.381C157.931 411.577 164.253 405.25 172.051 405.25C179.85 405.25 186.172 411.577 186.172 419.381Z" fill="#FACC15"/>
<path d="M138.379 399.091C138.379 431.708 111.956 458.149 79.3619 458.149C46.7677 458.149 20.3449 431.708 20.3449 399.091C20.3449 366.474 46.7677 340.032 79.3619 340.032C111.956 340.032 138.379 366.474 138.379 399.091Z" fill="white"/>
<path fill-rule="evenodd" clip-rule="evenodd" d="M79.3619 450.903C107.957 450.903 131.138 427.706 131.138 399.091C131.138 370.476 107.957 347.279 79.3619 347.279C50.767 347.279 27.5862 370.476 27.5862 399.091C27.5862 427.706 50.767 450.903 79.3619 450.903ZM79.3619 458.149C111.956 458.149 138.379 431.708 138.379 399.091C138.379 366.474 111.956 340.032 79.3619 340.032C46.7677 340.032 20.3449 366.474 20.3449 399.091C20.3449 431.708 46.7677 458.149 79.3619 458.149Z" fill="#DBEAFE"/>
<path d="M237.585 532.063H110.138L237.585 410.323V532.063Z" fill="#BFDBFE"/>
<path d="M30.4828 344.38C30.4828 341.979 32.428 340.032 34.8276 340.032H139.103C141.503 340.032 143.448 341.979 143.448 344.38C143.448 346.781 141.503 348.728 139.103 348.728H34.8276C32.428 348.728 30.4828 346.781 30.4828 344.38Z" fill="white"/>
<path fill-rule="evenodd" clip-rule="evenodd" d="M42.4743 503.44C42.9886 503.461 43.4178 503.84 43.5024 504.348L47.0551 525.679L50.0762 515.098C50.207 514.639 50.6209 514.32 51.097 514.31C51.5731 514.299 52.0005 514.6 52.1511 515.053L54.0759 520.831H57.6378C58.2377 520.831 58.724 521.318 58.724 521.918C58.724 522.518 58.2377 523.005 57.6378 523.005H53.293C52.8255 523.005 52.4104 522.706 52.2625 522.262L51.2004 519.073L47.8202 530.912C47.6807 531.401 47.2214 531.728 46.7144 531.699C46.2073 531.67 45.7879 531.294 45.7044 530.792L42.2181 509.86L39.1399 522.182C39.0191 522.666 38.5846 523.005 38.0862 523.005H33.7414C33.1415 523.005 32.6552 522.518 32.6552 521.918C32.6552 521.318 33.1415 520.831 33.7414 520.831H37.2381L41.3772 504.263C41.502 503.763 41.9601 503.42 42.4743 503.44Z" fill="white"/>
<path fill-rule="evenodd" clip-rule="evenodd" d="M59.8102 520.831C59.2103 520.831 58.724 521.318 58.724 521.918C58.724 522.518 59.2103 523.005 59.8102 523.005C60.4101 523.005 60.8964 522.518 60.8964 521.918C60.8964 521.318 60.4101 520.831 59.8102 520.831ZM56.5516 521.918C56.5516 520.117 58.0105 518.657 59.8102 518.657C61.6099 518.657 63.0688 520.117 63.0688 521.918C63.0688 523.719 61.6099 525.179 59.8102 525.179C58.0105 525.179 56.5516 523.719 56.5516 521.918Z" fill="white"/>
<path fill-rule="evenodd" clip-rule="evenodd" d="M125.136 505.421C127.068 504.129 129.34 503.44 131.664 503.44C134.78 503.44 137.769 504.679 139.973 506.884C142.176 509.089 143.415 512.08 143.415 515.198C143.415 517.524 142.726 519.798 141.434 521.732C140.143 523.665 138.308 525.172 136.161 526.062C134.014 526.952 131.651 527.185 129.372 526.732C127.092 526.278 124.998 525.158 123.355 523.513C121.712 521.869 120.593 519.774 120.139 517.493C119.686 515.212 119.919 512.847 120.808 510.699C121.697 508.55 123.203 506.713 125.136 505.421ZM131.664 505.614C134.204 505.614 136.641 506.624 138.437 508.421C140.233 510.219 141.242 512.657 141.242 515.199M131.664 505.614C129.77 505.614 127.918 506.176 126.343 507.229C124.768 508.282 123.54 509.779 122.815 511.531C122.09 513.282 121.9 515.209 122.27 517.069C122.639 518.928 123.552 520.636 124.891 521.976C126.231 523.317 127.937 524.23 129.795 524.599C131.653 524.969 133.579 524.779 135.33 524.054C137.08 523.328 138.576 522.1 139.628 520.524C140.681 518.948 141.242 517.094 141.242 515.199" fill="white"/>
<path fill-rule="evenodd" clip-rule="evenodd" d="M138.852 522.392C139.277 521.968 139.964 521.968 140.389 522.392L147.837 529.845C148.261 530.27 148.261 530.958 147.837 531.382C147.412 531.807 146.725 531.807 146.3 531.382L138.852 523.929C138.428 523.505 138.428 522.817 138.852 522.392Z" fill="white"/>
<path fill-rule="evenodd" clip-rule="evenodd" d="M207.172 511.048C207.172 510.448 207.658 509.961 208.258 509.961H232.154C232.754 509.961 233.241 510.448 233.241 511.048C233.241 511.649 232.754 512.135 232.154 512.135H208.258C207.658 512.135 207.172 511.649 207.172 511.048Z" fill="white"/>
<path fill-rule="evenodd" clip-rule="evenodd" d="M207.172 517.57C207.172 516.97 207.658 516.483 208.258 516.483H232.154C232.754 516.483 233.241 516.97 233.241 517.57C233.241 518.171 232.754 518.657 232.154 518.657H208.258C207.658 518.657 207.172 518.171 207.172 517.57Z" fill="white"/>
<path fill-rule="evenodd" clip-rule="evenodd" d="M207.172 524.092C207.172 523.492 207.658 523.005 208.258 523.005H232.154C232.754 523.005 233.241 523.492 233.241 524.092C233.241 524.692 232.754 525.179 232.154 525.179H208.258C207.658 525.179 207.172 524.692 207.172 524.092Z" fill="white"/>
<path fill-rule="evenodd" clip-rule="evenodd" d="M48.1994 71.1232C48.8357 71.7599 48.8357 72.7923 48.1994 73.429L39.5757 82.0588L48.1994 90.6886C48.8357 91.3253 48.8357 92.3577 48.1994 92.9944C47.5631 93.6311 46.5315 93.6311 45.8952 92.9944L36.1194 83.2117C35.4831 82.575 35.4831 81.5426 36.1194 80.9059L45.8952 71.1232C46.5315 70.4865 47.5631 70.4865 48.1994 71.1232Z" fill="white"/>
<path fill-rule="evenodd" clip-rule="evenodd" d="M37 82.0588C37 81.1583 37.7294 80.4283 38.6293 80.4283H58.4525C59.3523 80.4283 60.0818 81.1583 60.0818 82.0588C60.0818 82.9593 59.3523 83.6892 58.4525 83.6892H38.6293C37.7294 83.6892 37 82.9593 37 82.0588Z" fill="white"/>
<path d="M86.2411 82.0588C86.2411 78.8571 88.8348 76.2616 92.0342 76.2616H176.034C179.233 76.2616 181.827 78.8571 181.827 82.0588C181.827 85.2605 179.233 87.8559 176.034 87.8559H92.0342C88.8348 87.8559 86.2411 85.2605 86.2411 82.0588Z" fill="#BFDBFE"/>
<path d="M30.4828 138.581C30.4828 136.18 32.428 134.233 34.8276 134.233H95.6549C98.0545 134.233 99.9997 136.18 99.9997 138.581C99.9997 140.982 98.0545 142.929 95.6549 142.929H34.8276C32.428 142.929 30.4828 140.982 30.4828 138.581Z" fill="white"/>
<path d="M30.4828 158.871C30.4828 156.47 32.428 154.523 34.8276 154.523H128.241C130.641 154.523 132.586 156.47 132.586 158.871C132.586 161.272 130.641 163.219 128.241 163.219H34.8276C32.428 163.219 30.4828 161.272 30.4828 158.871Z" fill="white"/>
<path d="M111.586 138.581C111.586 136.18 113.531 134.233 115.931 134.233H188.344C190.744 134.233 192.689 136.18 192.689 138.581C192.689 140.982 190.744 142.929 188.344 142.929H115.931C113.531 142.929 111.586 140.982 111.586 138.581Z" fill="white"/>
<path d="M88.3668 305.352C88.3668 335.424 64.1481 359.803 34.2728 359.803C4.39744 359.803 -19.8213 335.424 -19.8213 305.352C-19.8213 275.28 4.39744 250.901 34.2728 250.901C64.1481 250.901 88.3668 275.28 88.3668 305.352Z" fill="#FACC15"/>
<path d="M102.838 222.13C102.838 233.048 94.0451 241.899 83.1986 241.899C72.3521 241.899 63.5594 233.048 63.5594 222.13C63.5594 211.212 72.3521 202.361 83.1986 202.361C94.0451 202.361 102.838 211.212 102.838 222.13Z" fill="white"/>
<path fill-rule="evenodd" clip-rule="evenodd" d="M83.1986 239.725C92.8333 239.725 100.665 231.86 100.665 222.13C100.665 212.401 92.8333 204.535 83.1986 204.535C73.5639 204.535 65.7318 212.401 65.7318 222.13C65.7318 231.86 73.5639 239.725 83.1986 239.725ZM83.1986 241.899C94.0451 241.899 102.838 233.048 102.838 222.13C102.838 211.212 94.0451 202.361 83.1986 202.361C72.3521 202.361 63.5594 211.212 63.5594 222.13C63.5594 233.048 72.3521 241.899 83.1986 241.899Z" fill="#BFDBFE"/>
<path d="M203.948 218.315C203.948 223.678 199.556 228.026 194.137 228.026C188.719 228.026 184.326 223.678 184.326 218.315C184.326 212.952 188.719 208.604 194.137 208.604C199.556 208.604 203.948 212.952 203.948 218.315Z" fill="#FACC15"/>
<path d="M188.531 271.379C188.531 282.297 179.589 291.148 168.559 291.148C157.529 291.148 148.587 282.297 148.587 271.379C148.587 260.461 157.529 251.61 168.559 251.61C179.589 251.61 188.531 260.461 188.531 271.379Z" fill="#BFDBFE"/>
<path fill-rule="evenodd" clip-rule="evenodd" d="M168.559 288.974C178.412 288.974 186.359 281.074 186.359 271.379C186.359 261.684 178.412 253.784 168.559 253.784C158.706 253.784 150.759 261.684 150.759 271.379C150.759 281.074 158.706 288.974 168.559 288.974ZM168.559 291.148C179.589 291.148 188.531 282.297 188.531 271.379C188.531 260.461 179.589 251.61 168.559 251.61C157.529 251.61 148.587 260.461 148.587 271.379C148.587 282.297 157.529 291.148 168.559 291.148Z" fill="#BFDBFE"/>
<path d="M309.45 238.084C309.45 249.002 300.657 257.853 289.811 257.853C278.964 257.853 270.171 249.002 270.171 238.084C270.171 227.166 278.964 218.315 289.811 218.315C300.657 218.315 309.45 227.166 309.45 238.084Z" fill="white"/>
<path fill-rule="evenodd" clip-rule="evenodd" d="M289.811 255.679C299.445 255.679 307.277 247.814 307.277 238.084C307.277 228.355 299.445 220.489 289.811 220.489C280.176 220.489 272.344 228.355 272.344 238.084C272.344 247.814 280.176 255.679 289.811 255.679ZM289.811 257.853C300.657 257.853 309.45 249.002 309.45 238.084C309.45 227.166 300.657 218.315 289.811 218.315C278.964 218.315 270.171 227.166 270.171 238.084C270.171 249.002 278.964 257.853 289.811 257.853Z" fill="#BFDBFE"/>
<path d="M260.758 216.843L267.568 236.448L288.305 236.871L271.777 249.411L277.783 269.278L260.758 257.423L243.732 269.278L249.739 249.411L233.21 236.871L253.947 236.448L260.758 216.843Z" fill="white"/>
<path fill-rule="evenodd" clip-rule="evenodd" d="M267.568 236.448L260.758 216.843L253.947 236.448L233.21 236.871L249.739 249.411L243.732 269.278L260.758 257.423L277.783 269.278L271.777 249.411L288.305 236.871L267.568 236.448ZM282.013 238.917L266.012 238.591L260.758 223.464L255.503 238.591L239.503 238.917L252.256 248.593L247.621 263.922L260.758 254.774L273.894 263.922L269.26 248.593L282.013 238.917Z" fill="#FACC15"/>
<path fill-rule="evenodd" clip-rule="evenodd" d="M47.1379 0.17395H220.93C247.725 0.17395 269.447 21.9111 269.447 48.7251V512.498C269.447 539.312 247.725 561.049 220.93 561.049H47.1379C20.3426 561.049 -1.37918 539.312 -1.37918 512.498V48.7251C-1.37918 21.911 20.3426 0.17395 47.1379 0.17395ZM47.1379 8.86969C25.1418 8.86969 7.31043 26.7136 7.31043 48.7251V512.498C7.31043 534.509 25.1418 552.353 47.1379 552.353H220.93C242.926 552.353 260.758 534.509 260.758 512.498V48.7251C260.758 26.7136 242.926 8.86969 220.93 8.86969H47.1379Z" fill="black"/>
<path d="M95.6549 38.5801C95.6549 32.577 100.518 27.7104 106.517 27.7104H160.827C166.826 27.7104 171.689 32.577 171.689 38.5801C171.689 44.5833 166.826 49.4498 160.827 49.4498H106.517C100.518 49.4498 95.6549 44.5833 95.6549 38.5801Z" fill="#BFDBFE"/>
</g>
<defs>
<clipPath id="clip0_224_1104">
<rect width="268" height="561" rx="47" fill="white"/>
</clipPath>
</defs>
</svg>
